<svg width="62" height="64" viewBox="0 0 62 64" fill="none" xmlns="http://www.w3.org/2000/svg">
<path fill-rule="evenodd" clip-rule="evenodd" d="M60.6253 30.2768L57.9018 29.1846V27.4481C57.9401 16.7899 50.7284 7.28055 39.9391 3.76336V1.31599C39.9391 0.589543 39.3068 0 38.5283 0H23.4296C22.6511 0 22.0189 0.589543 22.0189 1.31599V3.77629C11.2295 7.29348 4.01785 16.8029 4.05611 27.461V29.2109L1.36081 30.2768C0.838586 30.4823 0.5 30.9599 0.5 31.4875V38.3957C0.5 39.1217 1.13222 39.7112 1.91125 39.7112H3.74574V42.3432C3.74574 43.0692 4.37748 43.6588 5.15651 43.6588H10.2224C10.7035 45.3061 11.4103 46.8905 12.3247 48.3693L8.74084 51.7117C8.19327 52.2245 8.19327 53.0536 8.74084 53.5668L14.7378 59.159C15.2878 59.6696 16.1768 59.6696 16.7273 59.159L20.3111 55.8171C21.8931 56.6697 23.5865 57.3275 25.3488 57.7775V62.5014C25.3488 63.2274 25.981 63.817 26.76 63.817H35.2261C36.0051 63.817 36.6374 63.2274 36.6374 62.5014V57.7775C38.4039 57.3289 40.1026 56.6711 41.6889 55.8171L45.2732 59.159C45.8232 59.6696 46.7122 59.6696 47.2626 59.159L53.2596 53.5668C53.8072 53.0536 53.8072 52.2245 53.2596 51.7117L49.6753 48.3693C50.5897 46.8905 51.297 45.3061 51.7781 43.6588H56.8435C57.6225 43.6588 58.2547 43.0692 58.2547 42.3432V39.7112H60.0892C60.8683 39.7112 61.5 39.1217 61.5 38.3957V31.4875C61.4971 30.9559 61.1519 30.4783 60.6253 30.2768ZM24.8126 2.6449H37.1171V24.6319H24.8408L24.8126 2.6449ZM50.7479 41.0272H55.4465L55.4327 39.7112H42.5215C41.8778 44.6639 37.6913 48.5669 32.3801 49.168C26.0049 49.8905 20.2097 45.6562 19.4364 39.7112H6.53955V41.0272H11.2381C11.9153 41.0125 12.5064 41.4495 12.6494 42.0663C13.1415 44.1203 14.0305 46.0731 15.2739 47.8297C15.6364 48.3497 15.5589 49.0351 15.0903 49.4744L11.7178 52.6192L15.711 56.3433L19.0835 53.1985C19.555 52.7615 20.2901 52.6892 20.8477 53.0273C22.7424 54.1774 24.8466 54.993 27.056 55.4354C27.7179 55.5683 28.1866 56.1195 28.1708 56.7509V61.2247H33.8148V56.7906C33.7995 56.1591 34.2677 55.6075 34.9296 55.4746C37.1395 55.0313 39.2432 54.2153 41.1384 53.0669C41.696 52.7285 42.4311 52.8012 42.9021 53.2377L46.2746 56.3826L50.3104 52.6455L46.9379 49.5007C46.4697 49.0614 46.3918 48.376 46.7547 47.856C47.9866 46.0887 48.8613 44.127 49.3367 42.0663C49.4792 41.4495 50.0708 41.0125 50.7479 41.0272ZM22.3149 39.7112H39.6851C38.9089 44.1877 34.3877 47.23 29.5878 46.5062C25.8428 45.9417 22.9065 43.2035 22.301 39.7112H22.3149ZM3.30811 37.0798H58.6918V32.3821L55.9687 31.29C55.4465 31.0849 55.1079 30.6073 55.1079 30.0797V27.4477C55.1476 18.2464 49.1406 9.95935 39.9672 6.56567V25.948C39.9672 26.674 39.335 27.2635 38.556 27.2635H23.4296C22.6505 27.2635 22.0188 26.674 22.0188 25.948V6.56567C12.8607 9.96069 6.86087 18.2317 6.89195 27.4214V30.0529C6.89195 30.581 6.55337 31.0586 6.03114 31.2637L3.30811 32.3558V37.0798Z" fill="#0D8C6D"/>
</svg>
