<svg width="60" height="66" viewBox="0 0 60 66" fill="none" xmlns="http://www.w3.org/2000/svg">
<path fill-rule="evenodd" clip-rule="evenodd" d="M49.3622 29.677L49.3622 64.3788C49.3622 65.1203 48.7276 65.722 47.9456 65.722H40.7338C39.9518 65.722 39.3172 65.1203 39.3172 64.3783L39.3172 31.3562C39.3172 30.6147 39.9518 30.0129 40.7338 30.0129H42.5052L42.5052 11.6747C42.5052 10.9332 43.1398 10.331 43.9218 10.331L52.5358 10.331C54.3777 10.331 55.6671 8.67864 56.4179 7.33538L48.1721 7.33538C47.3902 7.33538 46.7555 6.73361 46.7555 5.99166V2.68698L25.2197 2.68698L8.13294 9.84756L30.3485 9.84756C31.1305 9.84756 31.7656 10.4493 31.7656 11.1908V12.4271H33.4799C34.2619 12.4271 34.8965 13.0289 34.8965 13.7704C34.8965 14.5119 34.2619 15.1136 33.4799 15.1136H31.7656V18.3651H33.4799C34.2619 18.3651 34.8965 18.9673 34.8965 19.7088C34.8965 20.4503 34.2619 21.052 33.4799 21.052H31.7656V24.3035H33.4799C34.2619 24.3035 34.8965 24.9052 34.8965 25.6467C34.8965 26.3882 34.2619 26.99 33.4799 26.99H31.7656L31.7656 30.0129H32.9412C33.7232 30.0129 34.3583 30.6147 34.3583 31.3562L34.3583 64.3783C34.3583 65.1198 33.7232 65.7216 32.9412 65.7216H24.7944C24.0124 65.7216 23.3778 65.1198 23.3778 64.3783L23.3778 44.025C19.1894 42.1064 14.7408 40.7508 10.1587 39.9948C2.9614 38.8795 1.06282 33.882 1.06282 31.3967C1.06282 30.6547 1.69744 30.053 2.47944 30.053L28.9319 30.053L28.9319 12.5883L1.4171 12.5883C0.73687 12.6028 0.143055 12.1567 0 11.5268V11.2445C0.00432205 10.7138 0.337475 10.2345 0.850163 10.0224L24.3551 0.12108C24.5337 0.0441533 24.7267 0.00273114 24.9221 0L48.1721 0C48.9541 0 49.5892 0.60176 49.5888 1.34326V4.64839L58.5147 4.55462C58.6679 4.54916 58.8224 4.56646 58.9698 4.60697C59.7206 4.81636 60.1512 5.56196 59.9318 6.27387C59.8469 6.58295 57.8067 12.9916 52.5502 12.9916H45.3672V20.8372L53.2731 20.8372C58.9401 21.1194 59.9885 27.8767 59.9885 28.1589C59.9971 28.2208 60 28.2841 60 28.3455C59.9942 29.087 59.3539 29.6838 58.5719 29.677L49.3622 29.677ZM31.5247 35.387V32.7001L4.16589 32.6864C4.69011 34.2181 6.19168 36.6092 10.6263 37.2943C15.8008 38.1541 20.8062 39.7527 25.4746 42.0368C25.9297 42.2731 26.213 42.7274 26.2115 43.219L26.2115 63.0082H31.5247V61.8256H29.8104C29.0279 61.8256 28.3933 61.2239 28.3933 60.4824C28.3933 59.7409 29.0279 59.1391 29.8104 59.1391H31.5247V55.8877H29.8104C29.0279 55.8877 28.3933 55.2859 28.3933 54.5444C28.3933 53.8029 29.0279 53.2007 29.8104 53.2007H31.5247V49.9498H29.8104C29.0279 49.9498 28.3933 49.348 28.3933 48.6065C28.3933 47.8646 29.0279 47.2628 29.8104 47.2628H31.5247L31.5247 44.0119H29.8104C29.0279 44.0119 28.3933 43.4101 28.3933 42.6682C28.3933 41.9267 29.0279 41.3249 29.8104 41.3249H31.5247V38.074H29.8104C29.0279 38.074 28.3933 37.4718 28.3933 36.7303C28.3933 35.9888 29.0279 35.387 29.8104 35.387H31.5247ZM45.3384 30.0131V23.4569L53.1738 23.4569C55.2279 23.5643 56.2624 25.4989 56.7583 26.9364L47.9311 26.9364C47.1491 26.9364 46.5145 27.5382 46.5145 28.2801V29.9593L45.3384 30.0131ZM42.1509 32.7L42.1509 63.035H46.5284L46.5284 32.7H42.1509Z" fill="#0D8C6D"/>
</svg>
