<svg width="62" height="67" viewBox="0 0 62 67" fill="none" xmlns="http://www.w3.org/2000/svg">
<path fill-rule="evenodd" clip-rule="evenodd" d="M19.8829 65.3354L19.8829 18.6097L43.1004 18.6097C43.873 18.6097 44.5 18.0103 44.5 17.2712V1.33899C44.5 0.599845 43.873 0 43.1004 0L1.89964 0C1.12701 0 0.5 0.599845 0.5 1.33899L0.5 65.3354C0.5 66.0746 1.12701 66.6744 1.89964 66.6744L18.4832 66.6744C19.2558 66.6744 19.8829 66.0746 19.8829 65.3354ZM41.7007 2.67749V15.932L19.0571 15.932L5.27234 2.67749L41.7007 2.67749ZM3.29932 4.57874L3.29932 63.9968L17.0841 64.1842V59.7657H13.6132C12.8406 59.7657 12.2136 59.1663 12.2136 58.4272C12.2136 57.688 12.8406 57.0882 13.6132 57.0882H17.0841V54.4107H13.6132C12.8406 54.4107 12.2136 53.8108 12.2136 53.0717C12.2136 52.3325 12.8406 51.7327 13.6132 51.7327H17.0841V49.0552H10.6466C9.87394 49.0552 9.24693 48.4553 9.24693 47.7162C9.24693 46.9775 9.87394 46.3777 10.6466 46.3777H17.0841L17.0841 43.6997H13.6132C12.8406 43.6997 12.2136 43.0998 12.2136 42.3612C12.2136 41.622 12.8406 41.0222 13.6132 41.0222H17.0841V38.3447H13.6132C12.8406 38.3447 12.2136 37.7448 12.2136 37.0057C12.2136 36.2665 12.8406 35.6667 13.6132 35.6667H17.0841V32.9892H10.6466C9.87394 32.9892 9.24693 32.3893 9.24693 31.6502C9.24693 30.911 9.87394 30.3117 10.6466 30.3117L17.0841 30.3117V27.6337L13.6132 27.6337C12.8406 27.6337 12.2136 27.0338 12.2136 26.2947C12.2136 25.556 12.8406 24.9562 13.6132 24.9562L17.0841 24.9562V22.2782L13.6132 22.2782C12.8406 22.2782 12.2136 21.6788 12.2136 20.9397C12.2136 20.2005 12.8406 19.6007 13.6132 19.6007L17.0841 19.6007V17.7667L3.29932 4.57874Z" fill="#0D8C6D"/>
<path fill-rule="evenodd" clip-rule="evenodd" d="M21.5 33.7288L21.5 33.7323L21.5 33.7426V33.7288ZM21.5 33.7323C21.5037 34.0191 21.602 34.298 21.7806 34.5274L31.7037 47.5741C31.7037 47.5741 31.816 47.6553 31.8721 47.7094C31.8939 47.7305 31.9094 47.7516 31.9242 47.7719C31.9475 47.8037 31.9694 47.8336 32.0124 47.8585L51.4509 61.6497C52.895 62.8881 54.9512 63.2101 56.7278 62.4753C57.6639 62.0272 58.4653 61.3575 59.058 60.5264L60.2367 58.943C61.0044 58.0064 61.4467 56.8601 61.5 55.6676C61.4424 54.0085 60.533 52.4857 59.0718 51.6073L39.5772 37.8702C39.4973 37.8257 39.4116 37.7904 39.3246 37.762C39.3246 37.762 39.2404 37.762 39.1981 37.6808L23.3527 32.4564C22.6187 32.217 21.8215 32.5972 21.5747 33.305C21.5263 33.4426 21.5012 33.5867 21.5 33.7323ZM57.4155 53.8272C58.1299 54.2153 58.6099 54.9084 58.7069 55.6945C58.6479 56.3133 58.3939 56.899 57.9773 57.3729L56.7981 58.9159C56.4866 59.3732 56.0628 59.7511 55.5629 60.0121L55.5533 60.0163C55.2911 60.1289 54.5208 60.4598 53.1209 59.4709L51.858 58.5774L54.0051 55.7624L56.1384 52.9337L57.4155 53.8272ZM52.5597 53.0559L53.8792 51.3234L39.0858 40.8613L34.7911 46.4917L49.5845 56.9537L50.9035 55.2346L39.4792 47.1141C39.4297 47.0829 39.3836 47.0503 39.3389 47.0136C38.7438 46.5361 38.6634 45.6821 39.1591 45.1083C39.6542 44.5345 40.5399 44.456 41.1349 44.9349L52.5597 53.0559ZM36.5178 39.6431L32.8263 44.4885L30.5388 41.4837L32.8543 38.4386L36.5178 39.6431ZM28.7984 39.1963L30.0756 37.5184L26.679 36.4084L28.7984 39.1963Z" fill="#0D8C6D"/>
</svg>
